<svg xmlns="http://www.w3.org/2000/svg" id="actor" viewBox="0 0 100 100">
  <path d="M50.08 63.43a18.12 18.12 0 0 1-8.46-2.13l-8.3-4.53a17.45 17.45 0 0 1-9.1-15.33V23.64a3.1 3.1 0 1 1 6.19 0v17.8a11.28 11.28 0 0 0 5.87 9.9l8.31 4.53a11.39 11.39 0 0 0 10.8 0l8.31-4.53a11.29 11.29 0 0 0 5.88-9.9V25.36a3.09 3.09 0 1 1 6.18 0V41.44a17.45 17.45 0 0 1-9.1 15.33l-8.3 4.53A17.24 17.24 0 0 1 50.08 63.43ZM50 100a46.57 46.57 0 0 1-7.54-.61 3.09 3.09 0 0 1 1-6.11 40.43 40.43 0 0 0 13.08 0l18.7-3.06A21.48 21.48 0 0 0 56.58 71.5a19.81 19.81 0 0 0-2.71-.17H46.1a20.28 20.28 0 0 0-2.66.17 21.38 21.38 0 0 0-11.53 5.18 13.3 13.3 0 0 0-1 .94 21.36 21.36 0 0 0-6.14 12.6l9 1.48a3.09 3.09 0 1 1-1 6.1L21 95.88a3.1 3.1 0 0 1-2.59-3.06 27.59 27.59 0 0 1 8.1-19.58c.44-.44.89-.86 1.35-1.24a27.51 27.51 0 0 1 14.77-6.64 26.85 26.85 0 0 1 3.46-.22h7.77a24.84 24.84 0 0 1 3.51.23 27.6 27.6 0 0 1 14.79 6.68 27.61 27.61 0 0 1 9.25 17.84 28.15 28.15 0 0 1 .16 2.93A3.1 3.1 0 0 1 79 95.88L57.53 99.39A46.54 46.54 0 0 1 50 100Z"></path>
  <path d="M37.91 28.57a33.45 33.45 0 0 1-11.67-2 3.1 3.1 0 0 1-2-2.9v-1c0-.29 0-.58 0-.86A22.59 22.59 0 0 1 46.89 0h6.19c.44 0 .87 0 1.3 0a22.37 22.37 0 0 1 6.53 1.35A22.8 22.8 0 0 1 75.63 20.26a21.37 21.37 0 0 1 .13 2.41v2.69a3.1 3.1 0 0 1-1 2.28 3.16 3.16 0 0 1-2.36.8 30.22 30.22 0 0 1-15.68-5.8A31.22 31.22 0 0 1 37.91 28.57ZM30.46 21.4a28.25 28.25 0 0 0 7.45 1c6.66 0 12.87-2.26 16.61-6a3.08 3.08 0 0 1 2.2-.92h0a3.08 3.08 0 0 1 2.2.92 21.13 21.13 0 0 0 10.63 5.42c0-.29 0-.57-.07-.85A16.57 16.57 0 0 0 58.77 7.2a16 16 0 0 0-4.76-1l-.93 0H46.89A16.42 16.42 0 0 0 30.46 21.4ZM56.65 90.76h-.53A9.68 9.68 0 0 1 50 88.6a9.75 9.75 0 0 1-6.13 2.16h-.53a6.1 6.1 0 0 1-6.09-6.1V80.48a6.1 6.1 0 0 1 6.09-6.1h.53A9.69 9.69 0 0 1 50 76.54a9.68 9.68 0 0 1 6.12-2.16h.53a6.11 6.11 0 0 1 6.1 6.1v4.18A6.11 6.11 0 0 1 56.65 90.76Zm-4-8.19 1 1a3.58 3.58 0 0 0 2.53 1h.44v-4h-.44a3.56 3.56 0 0 0-2.53 1.05Zm-9.2 2h.43a3.56 3.56 0 0 0 2.54-1l1-1-1-.95a3.56 3.56 0 0 0-2.54-1.05h-.43Z"></path>
</svg>
