<svg version="1.1" id="Layer_1" xmlns="http://www.w3.org/2000/svg" xmlns:xlink="http://www.w3.org/1999/xlink" x="0px" y="0px"
	 width="100%" viewBox="0 0 512 512" enable-background="new 0 0 512 512" xml:space="preserve">
<path fill="#000000" opacity="1.000000" stroke="none" 
	d="
M1.000000,188.000000 
	C1.000000,125.333336 1.000000,63.166668 1.000000,1.000000 
	C171.666672,1.000000 342.333344,1.000000 513.000000,1.000000 
	C513.000000,171.666672 513.000000,342.333344 513.000000,513.000000 
	C342.333344,513.000000 171.666672,513.000000 1.000000,513.000000 
	C1.000000,404.833344 1.000000,296.666656 1.000000,188.000000 
M123.370842,27.859852 
	C86.573387,43.275040 58.149391,68.300339 38.138805,102.742943 
	C20.955568,132.319077 13.386080,164.201920 14.808248,198.511200 
	C15.602841,217.680481 19.277170,236.028183 25.885561,253.874207 
	C34.786896,277.912323 48.614239,298.949097 66.697693,316.951752 
	C82.690895,332.873505 101.279778,345.312683 122.198769,354.041290 
	C139.465240,361.245850 157.353668,365.829071 176.099808,367.079376 
	C183.628204,367.581482 191.088821,369.039551 198.608765,369.769073 
	C200.603577,369.962585 202.730957,369.171600 204.746399,368.639282 
	C206.138702,368.271545 207.404129,367.229553 208.792801,367.070740 
	C233.498108,364.245239 256.782806,357.201202 278.508484,344.853485 
	C309.144470,327.441620 332.269745,302.930389 348.516876,271.859589 
	C358.628021,252.523148 364.413269,231.782440 366.881622,210.146393 
	C367.258362,206.844101 368.469086,205.864441 371.525757,205.966156 
	C375.853180,206.110138 380.190460,205.929306 384.521179,206.011322 
	C388.690674,206.090302 391.862061,205.031616 391.942780,200.098572 
	C392.009003,196.051834 389.614532,194.061905 384.660278,194.013504 
	C380.828156,193.976074 376.983978,193.817291 373.166138,194.052490 
	C369.326172,194.289047 367.880737,192.963303 367.898743,188.956009 
	C367.925507,182.994797 367.619659,176.985352 366.848602,171.075607 
	C363.904053,148.508118 357.478851,127.099075 346.593323,106.914650 
	C332.488007,80.759979 312.914612,59.678207 288.446869,43.336109 
	C270.235840,31.172903 250.038712,23.028404 228.523727,18.300426 
	C210.206406,14.275145 191.660004,13.604219 173.151855,15.239197 
	C156.254852,16.731848 139.801636,20.929300 123.370842,27.859852 
M441.859589,499.940643 
	C445.889221,499.019440 449.435852,497.252655 448.759674,492.447784 
	C448.090179,487.690491 444.264526,486.914398 440.083588,486.974274 
	C432.939423,487.076599 425.792511,486.968750 418.647156,487.014465 
	C412.911560,487.051147 410.297180,488.971039 410.079987,493.153534 
	C409.859772,497.393860 412.761780,499.862762 418.539978,499.957703 
	C426.015869,500.080505 433.495331,499.983154 441.859589,499.940643 
M490.085388,220.597137 
	C489.064270,222.766083 487.261841,224.899948 487.162598,227.110291 
	C486.805756,235.058594 486.904755,243.035263 487.076904,250.995911 
	C487.158356,254.762878 488.541382,257.705902 493.110077,258.020935 
	C497.836456,258.346771 499.571747,255.276337 499.731689,251.670624 
	C500.113556,243.061752 500.170197,234.413315 499.793854,225.805527 
	C499.574280,220.783142 495.411041,218.555344 490.085388,220.597137 
M490.343781,379.499817 
	C489.239105,381.627686 487.281769,383.716248 487.181549,385.890411 
	C486.805969,394.036682 486.912476,402.213684 487.093262,410.373505 
	C487.185455,414.534363 490.593201,418.252838 493.763245,417.718231 
	C497.693054,417.055481 499.846863,414.279694 499.921173,410.343903 
	C500.069000,402.516113 500.152649,394.678162 499.917114,386.854858 
	C499.725006,380.474548 497.628479,378.868591 490.343781,379.499817 
M339.020782,488.063538 
	C337.425201,487.712463 335.833649,487.081299 334.233307,487.058105 
	C326.768372,486.949890 319.300110,486.942047 311.834686,487.032196 
	C306.557007,487.095947 304.151672,489.114471 304.019745,493.253906 
	C303.884583,497.494293 305.962555,499.690094 311.378021,499.878448 
	C319.332520,500.155121 327.329346,500.320618 335.251801,499.750275 
	C337.690491,499.574738 340.779968,497.298584 341.981415,495.110992 
	C342.744110,493.722229 340.573914,490.722656 339.020782,488.063538 
M360.785919,499.041321 
	C370.521637,499.279907 380.264618,499.825195 389.989258,499.595337 
	C393.527100,499.511719 396.243286,496.339050 395.727325,492.669098 
	C395.256439,489.319763 392.640259,486.999817 388.751465,487.007507 
	C380.622192,487.023621 372.475708,486.724152 364.374298,487.200165 
	C362.041077,487.337219 359.079071,489.170013 357.759094,491.134796 
	C355.956970,493.817444 357.051514,496.872314 360.785919,499.041321 
M490.706635,469.814484 
	C495.862335,471.499634 499.744568,468.871216 499.914856,463.111420 
	C500.145782,455.299988 500.129089,447.471893 499.908325,439.659729 
	C499.759399,434.388855 497.077728,431.737885 492.755096,432.068329 
	C487.893799,432.439911 487.071411,436.002899 487.031036,439.904572 
	C486.955353,447.223358 486.748688,454.557648 487.148285,461.855286 
	C487.288391,464.413940 489.049622,466.883881 490.706635,469.814484 
M251.089584,495.120758 
	C252.051056,499.354767 255.624619,499.782776 258.872314,499.891602 
	C266.524994,500.148163 274.193298,500.071564 281.852448,499.950226 
	C286.395599,499.878265 289.639801,496.919098 289.723358,493.182861 
	C289.790741,490.169525 286.092926,487.121490 281.828461,487.054871 
	C274.002625,486.932587 266.171753,486.915802 258.346497,487.053986 
	C253.094604,487.146759 251.399155,488.994293 251.089584,495.120758 
M489.674591,310.004822 
	C496.653473,312.303711 499.918335,310.129822 499.982269,303.002075 
	C500.050751,295.368195 500.072113,287.731995 499.960236,280.099060 
	C499.891602,275.416992 497.583038,273.065094 493.528229,273.012878 
	C488.691406,272.950562 487.153625,276.063904 487.071503,280.092834 
	C486.909241,288.055908 486.899658,296.028076 487.118134,303.988495 
	C487.168549,305.825073 488.392578,307.629456 489.674591,310.004822 
M487.025116,356.997894 
	C487.410400,361.052948 488.806396,364.033142 493.646973,364.013580 
	C497.647583,363.997406 499.696960,361.613190 499.810486,358.212646 
	C500.098907,349.572052 500.085541,340.904663 499.716309,332.268372 
	C499.594788,329.426025 498.531464,326.324646 494.519623,326.013489 
	C489.913147,325.656250 487.175598,327.964630 487.063934,333.130249 
	C486.898529,340.782227 487.013885,348.440308 487.025116,356.997894 
M204.189056,499.834686 
	C212.169754,499.880951 220.154236,500.095886 228.129883,499.916779 
	C233.863922,499.788025 236.134125,497.571686 235.973877,493.143127 
	C235.826721,489.076385 233.346527,487.082458 228.003967,487.026978 
	C220.520676,486.949219 213.035278,486.954620 205.552048,487.037750 
	C202.032501,487.076843 198.855972,487.946320 198.087570,492.094635 
	C197.302658,496.332153 199.280334,498.733978 204.189056,499.834686 
M497.193726,486.180481 
	C495.129730,485.973633 493.044983,485.480408 491.006744,485.628357 
	C488.080353,485.840790 485.202545,486.771942 482.277588,486.941528 
	C477.968506,487.191406 473.533539,486.494019 469.354858,487.279053 
	C467.087646,487.704926 464.378174,490.007690 463.496826,492.137695 
	C462.877686,493.634003 464.516571,496.785645 466.054321,498.236816 
	C467.409088,499.515259 470.008087,499.848541 472.081451,499.921326 
	C478.059540,500.131134 484.049835,500.030548 490.034943,499.992798 
	C499.174896,499.935150 502.109619,494.884918 497.193726,486.180481 
M205.998337,469.160614 
	C205.998550,461.030212 205.822174,452.894440 206.070358,444.771606 
	C206.202789,440.437592 204.662155,438.088409 200.273514,438.068756 
	C195.923996,438.049255 194.030441,440.567719 194.019897,444.703827 
	C193.998749,453.000031 194.074173,461.296936 193.992218,469.592377 
	C193.949661,473.900421 196.326309,476.395355 200.189590,476.470978 
	C203.841507,476.542450 206.420822,474.342865 205.998337,469.160614 
M435.367493,205.999084 
	C436.197174,205.998764 437.037018,205.914017 437.854889,206.012177 
	C442.295349,206.545273 444.914490,204.913986 444.953705,200.148117 
	C444.986969,196.105392 442.648438,194.058075 437.671234,194.024017 
	C429.374878,193.967224 421.077667,194.043045 412.780914,194.025284 
	C408.587769,194.016312 406.552124,196.674530 406.541779,200.241547 
	C406.530975,203.956772 408.746704,206.169830 412.998810,206.048569 
	C420.128296,205.845261 427.267914,205.996841 435.367493,205.999084 
M461.533447,196.031174 
	C458.125488,202.460251 460.021545,205.949799 467.012115,205.987518 
	C475.151550,206.031433 483.291931,205.943619 491.430908,206.019211 
	C495.221588,206.054398 498.030334,205.232559 497.997986,200.629593 
	C497.967865,196.342422 495.844910,194.091721 491.133911,194.036011 
	C482.995361,193.939774 474.853607,193.937057 466.716278,194.075455 
	C465.177246,194.101624 463.652466,194.966354 461.533447,196.031174 
M194.001144,400.523560 
	C194.009644,406.022797 193.907791,411.525177 194.063324,417.020264 
	C194.177399,421.050903 196.550293,422.913879 200.532425,422.996307 
	C204.720917,423.082977 206.034546,420.764191 206.010208,416.990997 
	C205.955414,408.492432 205.926224,399.992432 206.026779,391.494690 
	C206.073090,387.582489 204.996185,384.943542 200.491806,385.013428 
	C196.171753,385.080414 194.109055,387.337250 194.025070,391.538025 
	C193.971771,394.203339 194.006104,396.870453 194.001144,400.523560 
z"/>
<path fill="#34373B" opacity="1.000000" stroke="none" 
	d="
M123.715401,27.685730 
	C139.801636,20.929300 156.254852,16.731848 173.151855,15.239197 
	C191.660004,13.604219 210.206406,14.275145 228.523727,18.300426 
	C250.038712,23.028404 270.235840,31.172903 288.446869,43.336109 
	C312.914612,59.678207 332.488007,80.759979 346.593323,106.914650 
	C357.478851,127.099075 363.904053,148.508118 366.848602,171.075607 
	C367.619659,176.985352 367.925507,182.994797 367.898743,188.956009 
	C367.880737,192.963303 369.326172,194.289047 373.166138,194.052490 
	C376.983978,193.817291 380.828156,193.976074 384.660278,194.013504 
	C389.614532,194.061905 392.009003,196.051834 391.942780,200.098572 
	C391.862061,205.031616 388.690674,206.090302 384.521179,206.011322 
	C380.190460,205.929306 375.853180,206.110138 371.525757,205.966156 
	C368.469086,205.864441 367.258362,206.844101 366.881622,210.146393 
	C364.413269,231.782440 358.628021,252.523148 348.516876,271.859589 
	C332.269745,302.930389 309.144470,327.441620 278.508484,344.853485 
	C256.782806,357.201202 233.498108,364.245239 208.792801,367.070740 
	C207.404129,367.229553 206.138702,368.271545 204.746399,368.639282 
	C202.730957,369.171600 200.603577,369.962585 198.608765,369.769073 
	C191.088821,369.039551 183.628204,367.581482 176.099808,367.079376 
	C157.353668,365.829071 139.465240,361.245850 122.198769,354.041290 
	C101.279778,345.312683 82.690895,332.873505 66.697693,316.951752 
	C48.614239,298.949097 34.786896,277.912323 25.885561,253.874207 
	C19.277170,236.028183 15.602841,217.680481 14.808248,198.511200 
	C13.386080,164.201920 20.955568,132.319077 38.138805,102.742943 
	C58.149391,68.300339 86.573387,43.275040 123.715401,27.685730 
M306.628845,73.457260 
	C304.772919,71.792305 302.929535,70.113136 301.059204,68.464523 
	C264.302582,36.064873 221.311630,22.150412 172.812454,27.385366 
	C128.046402,32.217373 91.079224,52.865540 62.795830,87.910118 
	C34.249279,123.280754 22.468725,164.151917 27.338125,209.261398 
	C31.421225,247.086746 47.251682,279.779388 74.357101,307.586090 
	C84.536522,315.585815 94.190697,324.393402 105.001503,331.421967 
	C129.733810,347.501587 157.392334,354.848511 186.745575,355.954773 
	C193.987030,356.227661 194.017197,355.984711 194.018234,348.811920 
	C194.025009,302.154755 194.019745,255.497604 194.023422,208.840439 
	C194.024460,195.537231 195.532761,194.032715 209.008957,194.027603 
	C242.335495,194.014969 275.662048,194.023666 308.988586,194.023056 
	C322.819092,194.022797 336.650726,193.921677 350.479401,194.080505 
	C354.551849,194.127258 356.365997,192.728790 356.015167,188.573608 
	C355.483826,182.281219 355.425049,175.932404 354.585083,169.685593 
	C351.667450,147.986664 344.887848,127.560387 333.814941,108.603539 
	C326.391266,95.894180 317.547943,84.299461 306.628845,73.457260 
M221.503647,205.965302 
	C216.408188,205.965302 211.312744,205.965302 206.284973,205.965302 
	C206.284973,256.051819 206.284973,305.458923 206.284973,354.890411 
	C291.722351,348.268616 351.812225,274.140411 354.430817,205.965302 
	C310.446777,205.965302 266.474396,205.965302 221.503647,205.965302 
z"/>
<path fill="#33363A" opacity="1.000000" stroke="none" 
	d="
M441.416443,499.960632 
	C433.495331,499.983154 426.015869,500.080505 418.539978,499.957703 
	C412.761780,499.862762 409.859772,497.393860 410.079987,493.153534 
	C410.297180,488.971039 412.911560,487.051147 418.647156,487.014465 
	C425.792511,486.968750 432.939423,487.076599 440.083588,486.974274 
	C444.264526,486.914398 448.090179,487.690491 448.759674,492.447784 
	C449.435852,497.252655 445.889221,499.019440 441.416443,499.960632 
z"/>
<path fill="#33363A" opacity="1.000000" stroke="none" 
	d="
M490.404480,220.389465 
	C495.411041,218.555344 499.574280,220.783142 499.793854,225.805527 
	C500.170197,234.413315 500.113556,243.061752 499.731689,251.670624 
	C499.571747,255.276337 497.836456,258.346771 493.110077,258.020935 
	C488.541382,257.705902 487.158356,254.762878 487.076904,250.995911 
	C486.904755,243.035263 486.805756,235.058594 487.162598,227.110291 
	C487.261841,224.899948 489.064270,222.766083 490.404480,220.389465 
z"/>
<path fill="#33363A" opacity="1.000000" stroke="none" 
	d="
M490.723816,379.358643 
	C497.628479,378.868591 499.725006,380.474548 499.917114,386.854858 
	C500.152649,394.678162 500.069000,402.516113 499.921173,410.343903 
	C499.846863,414.279694 497.693054,417.055481 493.763245,417.718231 
	C490.593201,418.252838 487.185455,414.534363 487.093262,410.373505 
	C486.912476,402.213684 486.805969,394.036682 487.181549,385.890411 
	C487.281769,383.716248 489.239105,381.627686 490.723816,379.358643 
z"/>
<path fill="#33363A" opacity="1.000000" stroke="none" 
	d="
M339.369873,488.254517 
	C340.573914,490.722656 342.744110,493.722229 341.981415,495.110992 
	C340.779968,497.298584 337.690491,499.574738 335.251801,499.750275 
	C327.329346,500.320618 319.332520,500.155121 311.378021,499.878448 
	C305.962555,499.690094 303.884583,497.494293 304.019745,493.253906 
	C304.151672,489.114471 306.557007,487.095947 311.834686,487.032196 
	C319.300110,486.942047 326.768372,486.949890 334.233307,487.058105 
	C335.833649,487.081299 337.425201,487.712463 339.369873,488.254517 
z"/>
<path fill="#33363A" opacity="1.000000" stroke="none" 
	d="
M360.392639,498.922943 
	C357.051514,496.872314 355.956970,493.817444 357.759094,491.134796 
	C359.079071,489.170013 362.041077,487.337219 364.374298,487.200165 
	C372.475708,486.724152 380.622192,487.023621 388.751465,487.007507 
	C392.640259,486.999817 395.256439,489.319763 395.727325,492.669098 
	C396.243286,496.339050 393.527100,499.511719 389.989258,499.595337 
	C380.264618,499.825195 370.521637,499.279907 360.392639,498.922943 
z"/>
<path fill="#33363A" opacity="1.000000" stroke="none" 
	d="
M490.388611,469.604401 
	C489.049622,466.883881 487.288391,464.413940 487.148285,461.855286 
	C486.748688,454.557648 486.955353,447.223358 487.031036,439.904572 
	C487.071411,436.002899 487.893799,432.439911 492.755096,432.068329 
	C497.077728,431.737885 499.759399,434.388855 499.908325,439.659729 
	C500.129089,447.471893 500.145782,455.299988 499.914856,463.111420 
	C499.744568,468.871216 495.862335,471.499634 490.388611,469.604401 
z"/>
<path fill="#33363A" opacity="1.000000" stroke="none" 
	d="
M251.062424,494.716003 
	C251.399155,488.994293 253.094604,487.146759 258.346497,487.053986 
	C266.171753,486.915802 274.002625,486.932587 281.828461,487.054871 
	C286.092926,487.121490 289.790741,490.169525 289.723358,493.182861 
	C289.639801,496.919098 286.395599,499.878265 281.852448,499.950226 
	C274.193298,500.071564 266.524994,500.148163 258.872314,499.891602 
	C255.624619,499.782776 252.051056,499.354767 251.062424,494.716003 
z"/>
<path fill="#33363A" opacity="1.000000" stroke="none" 
	d="
M489.375549,309.726746 
	C488.392578,307.629456 487.168549,305.825073 487.118134,303.988495 
	C486.899658,296.028076 486.909241,288.055908 487.071503,280.092834 
	C487.153625,276.063904 488.691406,272.950562 493.528229,273.012878 
	C497.583038,273.065094 499.891602,275.416992 499.960236,280.099060 
	C500.072113,287.731995 500.050751,295.368195 499.982269,303.002075 
	C499.918335,310.129822 496.653473,312.303711 489.375549,309.726746 
z"/>
<path fill="#33363A" opacity="1.000000" stroke="none" 
	d="
M487.017426,356.546844 
	C487.013885,348.440308 486.898529,340.782227 487.063934,333.130249 
	C487.175598,327.964630 489.913147,325.656250 494.519623,326.013489 
	C498.531464,326.324646 499.594788,329.426025 499.716309,332.268372 
	C500.085541,340.904663 500.098907,349.572052 499.810486,358.212646 
	C499.696960,361.613190 497.647583,363.997406 493.646973,364.013580 
	C488.806396,364.033142 487.410400,361.052948 487.017426,356.546844 
z"/>
<path fill="#33363A" opacity="1.000000" stroke="none" 
	d="
M203.770874,499.729004 
	C199.280334,498.733978 197.302658,496.332153 198.087570,492.094635 
	C198.855972,487.946320 202.032501,487.076843 205.552048,487.037750 
	C213.035278,486.954620 220.520676,486.949219 228.003967,487.026978 
	C233.346527,487.082458 235.826721,489.076385 235.973877,493.143127 
	C236.134125,497.571686 233.863922,499.788025 228.129883,499.916779 
	C220.154236,500.095886 212.169754,499.880951 203.770874,499.729004 
z"/>
<path fill="#33363A" opacity="1.000000" stroke="none" 
	d="
M497.512756,486.410034 
	C502.109619,494.884918 499.174896,499.935150 490.034943,499.992798 
	C484.049835,500.030548 478.059540,500.131134 472.081451,499.921326 
	C470.008087,499.848541 467.409088,499.515259 466.054321,498.236816 
	C464.516571,496.785645 462.877686,493.634003 463.496826,492.137695 
	C464.378174,490.007690 467.087646,487.704926 469.354858,487.279053 
	C473.533539,486.494019 477.968506,487.191406 482.277588,486.941528 
	C485.202545,486.771942 488.080353,485.840790 491.006744,485.628357 
	C493.044983,485.480408 495.129730,485.973633 497.512756,486.410034 
z"/>
<path fill="#33363A" opacity="1.000000" stroke="none" 
	d="
M205.995728,469.612488 
	C206.420822,474.342865 203.841507,476.542450 200.189590,476.470978 
	C196.326309,476.395355 193.949661,473.900421 193.992218,469.592377 
	C194.074173,461.296936 193.998749,453.000031 194.019897,444.703827 
	C194.030441,440.567719 195.923996,438.049255 200.273514,438.068756 
	C204.662155,438.088409 206.202789,440.437592 206.070358,444.771606 
	C205.822174,452.894440 205.998550,461.030212 205.995728,469.612488 
z"/>
<path fill="#33363A" opacity="1.000000" stroke="none" 
	d="
M434.885376,205.999084 
	C427.267914,205.996841 420.128296,205.845261 412.998810,206.048569 
	C408.746704,206.169830 406.530975,203.956772 406.541779,200.241547 
	C406.552124,196.674530 408.587769,194.016312 412.780914,194.025284 
	C421.077667,194.043045 429.374878,193.967224 437.671234,194.024017 
	C442.648438,194.058075 444.986969,196.105392 444.953705,200.148117 
	C444.914490,204.913986 442.295349,206.545273 437.854889,206.012177 
	C437.037018,205.914017 436.197174,205.998764 434.885376,205.999084 
z"/>
<path fill="#33363A" opacity="1.000000" stroke="none" 
	d="
M461.827271,195.737671 
	C463.652466,194.966354 465.177246,194.101624 466.716278,194.075455 
	C474.853607,193.937057 482.995361,193.939774 491.133911,194.036011 
	C495.844910,194.091721 497.967865,196.342422 497.997986,200.629593 
	C498.030334,205.232559 495.221588,206.054398 491.430908,206.019211 
	C483.291931,205.943619 475.151550,206.031433 467.012115,205.987518 
	C460.021545,205.949799 458.125488,202.460251 461.827271,195.737671 
z"/>
<path fill="#33363A" opacity="1.000000" stroke="none" 
	d="
M194.001144,400.030151 
	C194.006104,396.870453 193.971771,394.203339 194.025070,391.538025 
	C194.109055,387.337250 196.171753,385.080414 200.491806,385.013428 
	C204.996185,384.943542 206.073090,387.582489 206.026779,391.494690 
	C205.926224,399.992432 205.955414,408.492432 206.010208,416.990997 
	C206.034546,420.764191 204.720917,423.082977 200.532425,422.996307 
	C196.550293,422.913879 194.177399,421.050903 194.063324,417.020264 
	C193.907791,411.525177 194.009644,406.022797 194.001144,400.030151 
z"/>
<path fill="#585B5E" opacity="1.000000" stroke="none" 
	d="
M73.988670,307.032623 
	C47.251682,279.779388 31.421225,247.086746 27.338125,209.261398 
	C22.468725,164.151917 34.249279,123.280754 62.795830,87.910118 
	C91.079224,52.865540 128.046402,32.217373 172.812454,27.385366 
	C221.311630,22.150412 264.302582,36.064873 301.059204,68.464523 
	C302.929535,70.113136 304.772919,71.792305 306.743225,74.055061 
	C305.630798,76.203484 304.545319,77.895317 303.156982,79.284485 
	C228.511414,153.975800 153.844528,228.645859 79.141418,303.279633 
	C77.656334,304.763336 75.716393,305.791779 73.988670,307.032623 
z"/>
<path fill="#434649" opacity="1.000000" stroke="none" 
	d="
M74.172882,307.309357 
	C75.716393,305.791779 77.656334,304.763336 79.141418,303.279633 
	C153.844528,228.645859 228.511414,153.975800 303.156982,79.284485 
	C304.545319,77.895317 305.630798,76.203484 306.946533,74.320328 
	C317.547943,84.299461 326.391266,95.894180 333.814941,108.603539 
	C344.887848,127.560387 351.667450,147.986664 354.585083,169.685593 
	C355.425049,175.932404 355.483826,182.281219 356.015167,188.573608 
	C356.365997,192.728790 354.551849,194.127258 350.479401,194.080505 
	C336.650726,193.921677 322.819092,194.022797 308.988586,194.023056 
	C275.662048,194.023666 242.335495,194.014969 209.008957,194.027603 
	C195.532761,194.032715 194.024460,195.537231 194.023422,208.840439 
	C194.019745,255.497604 194.025009,302.154755 194.018234,348.811920 
	C194.017197,355.984711 193.987030,356.227661 186.745575,355.954773 
	C157.392334,354.848511 129.733810,347.501587 105.001503,331.421967 
	C94.190697,324.393402 84.536522,315.585815 74.172882,307.309357 
z"/>
<path fill="#C6DAE0" opacity="1.000000" stroke="none" 
	d="
M222.002838,205.965302 
	C266.474396,205.965302 310.446777,205.965302 354.430817,205.965302 
	C351.812225,274.140411 291.722351,348.268616 206.284973,354.890411 
	C206.284973,305.458923 206.284973,256.051819 206.284973,205.965302 
	C211.312744,205.965302 216.408188,205.965302 222.002838,205.965302 
z"/>
</svg>