<?xml version="1.0" encoding="iso-8859-1"?>
<!-- Uploaded to: SVG Repo, www.svgrepo.com, Generator: SVG Repo Mixer Tools -->
<!DOCTYPE svg PUBLIC "-//W3C//DTD SVG 1.1//EN" "http://www.w3.org/Graphics/SVG/1.1/DTD/svg11.dtd">
<svg fill="#000000" version="1.1" id="Capa_1" xmlns="http://www.w3.org/2000/svg" xmlns:xlink="http://www.w3.org/1999/xlink" 
	 width="800px" height="800px" viewBox="0 0 45.667 45.667"
	 xml:space="preserve">
<g>
	<g>
		<path d="M14.307,26.338c-2.98,1.113-4.506,4.455-3.398,7.453c0.843,2.252,3.023,3.765,5.426,3.765c0.692,0,1.37-0.122,2.012-0.36
			c0.119-0.045,11.851-4.529,15.219-17.991l3.598-0.007c0.732,0,1.374-0.351,1.714-0.937c0.339-0.587,0.322-1.317-0.046-1.957
			L30.193,1.401c-0.367-0.639-0.992-1.018-1.672-1.018c-0.678,0-1.301,0.38-1.67,1.018l-8.59,14.938
			c-0.367,0.636-0.384,1.365-0.045,1.952c0.339,0.587,0.979,0.938,1.716,0.938l1.366-0.002
			C18.88,24.417,14.469,26.271,14.307,26.338z M24.661,18.929c0.231-0.646,0.147-1.323-0.229-1.858
			c-0.379-0.539-0.995-0.848-1.689-0.848l-0.955,0.001l6.738-11.717L35.303,16.2l-2.199,0.004c-1.092,0.003-2.104,0.812-2.354,1.884
			C27.921,30.2,17.402,34.344,17.302,34.383c-0.309,0.113-0.635,0.173-0.968,0.173c-1.158,0-2.209-0.729-2.613-1.81
			c-0.535-1.447,0.199-3.062,1.679-3.614C16.071,28.858,22.034,26.241,24.661,18.929z"/>
		<path d="M44.167,27.95c-0.828,0-1.5,0.672-1.5,1.5v12.834H3V29.45c0-0.828-0.672-1.5-1.5-1.5S0,28.622,0,29.45v13.334
			c0,1.379,1.121,2.5,2.5,2.5h40.667c1.379,0,2.5-1.121,2.5-2.5V29.45C45.667,28.622,44.995,27.95,44.167,27.95z"/>
	</g>
</g>
</svg>